<svg width="93" height="93" viewBox="0 0 93 93" fill="none" xmlns="http://www.w3.org/2000/svg">
<path d="M11.625 70.25C17.7692 70.25 22.75 75.2308 22.75 81.375C22.75 87.5192 17.7692 92.5 11.625 92.5C5.48083 92.5 0.5 87.5192 0.5 81.375C0.5 75.2308 5.48083 70.25 11.625 70.25ZM92.5 42.625V50.375C92.5 56.5192 87.5192 61.5 81.375 61.5C75.2308 61.5 70.25 56.5192 70.25 50.375V42.625C70.25 36.4808 75.2308 31.5 81.375 31.5C87.5192 31.5 92.5 36.4808 92.5 42.625ZM50.375 92.5H42.625C36.4808 92.5 31.5 87.5192 31.5 81.375C31.5 75.2308 36.4808 70.25 42.625 70.25H50.375C56.5192 70.25 61.5 75.2308 61.5 81.375C61.5 87.5192 56.5192 92.5 50.375 92.5ZM81.375 22.75C75.2308 22.75 70.25 17.7692 70.25 11.625C70.25 5.48083 75.2308 0.5 81.375 0.5C87.5192 0.5 92.5 5.48083 92.5 11.625C92.5 17.7692 87.5192 22.75 81.375 22.75ZM92.5 81.375C92.5 87.5192 87.5192 92.5 81.375 92.5C75.2308 92.5 70.25 87.5192 70.25 81.375C70.25 75.2308 75.2308 70.25 81.375 70.25C87.5192 70.25 92.5 75.2308 92.5 81.375ZM31.5 46.5C31.5 38.2157 38.2157 31.5 46.5 31.5C54.7843 31.5 61.5 38.2157 61.5 46.5C61.5 54.7843 54.7843 61.5 46.5 61.5C38.2157 61.5 31.5 54.7843 31.5 46.5Z" fill="#FFF9F9" stroke="#D0D0D0"/>
</svg>
