<svg width="80" height="80" viewBox="0 0 80 80" fill="none" xmlns="http://www.w3.org/2000/svg">
<path d="M79.5 36.6667V43.3333C79.5 48.58 75.2467 52.8333 70 52.8333C64.7533 52.8333 60.5 48.58 60.5 43.3333V36.6667C60.5 31.42 64.7533 27.1667 70 27.1667C75.2467 27.1667 79.5 31.42 79.5 36.6667ZM36.6667 60.5H43.3333C48.58 60.5 52.8333 64.7533 52.8333 70C52.8333 75.2467 48.58 79.5 43.3333 79.5H36.6667C31.42 79.5 27.1667 75.2467 27.1667 70C27.1667 64.7533 31.42 60.5 36.6667 60.5ZM10 60.5C15.2467 60.5 19.5 64.7533 19.5 70C19.5 75.2467 15.2467 79.5 10 79.5C4.75329 79.5 0.5 75.2467 0.5 70C0.5 64.7533 4.75329 60.5 10 60.5ZM70 19.5C64.7533 19.5 60.5 15.2467 60.5 10C60.5 4.75329 64.7533 0.5 70 0.5C75.2467 0.5 79.5 4.75329 79.5 10C79.5 15.2467 75.2467 19.5 70 19.5ZM79.5 70C79.5 75.2467 75.2467 79.5 70 79.5C64.7533 79.5 60.5 75.2467 60.5 70C60.5 64.7533 64.7533 60.5 70 60.5C75.2467 60.5 79.5 64.7533 79.5 70ZM27.1667 40C27.1667 32.9123 32.9123 27.1667 40 27.1667C47.0877 27.1667 52.8333 32.9123 52.8333 40C52.8333 47.0877 47.0877 52.8333 40 52.8333C32.9123 52.8333 27.1667 47.0877 27.1667 40Z" fill="#151414" stroke="white"/>
</svg>
