<svg width="95" height="95" viewBox="0 0 95 95" fill="none" xmlns="http://www.w3.org/2000/svg">
<path d="M24.75 82.375C24.75 75.6786 19.3215 70.25 12.625 70.25C5.92855 70.25 0.5 75.6786 0.5 82.375C0.5 89.0714 5.92855 94.5 12.625 94.5C19.3215 94.5 24.75 89.0714 24.75 82.375ZM94.5 51.375V43.625C94.5 36.9285 89.0714 31.5 82.375 31.5C75.6786 31.5 70.25 36.9285 70.25 43.625V51.375C70.25 58.0715 75.6786 63.5 82.375 63.5C89.0714 63.5 94.5 58.0715 94.5 51.375ZM43.625 94.5H51.375C58.0715 94.5 63.5 89.0714 63.5 82.375C63.5 75.6786 58.0715 70.25 51.375 70.25H43.625C36.9285 70.25 31.5 75.6786 31.5 82.375C31.5 89.0714 36.9285 94.5 43.625 94.5ZM70.25 12.625C70.25 19.3215 75.6786 24.75 82.375 24.75C89.0714 24.75 94.5 19.3215 94.5 12.625C94.5 5.92855 89.0714 0.5 82.375 0.5C75.6786 0.5 70.25 5.92855 70.25 12.625ZM82.375 94.5C89.0714 94.5 94.5 89.0714 94.5 82.375C94.5 75.6786 89.0714 70.25 82.375 70.25C75.6786 70.25 70.25 75.6786 70.25 82.375C70.25 89.0714 75.6786 94.5 82.375 94.5ZM47.5 31.5C38.6634 31.5 31.5 38.6634 31.5 47.5C31.5 56.3366 38.6634 63.5 47.5 63.5C56.3366 63.5 63.5 56.3366 63.5 47.5C63.5 38.6634 56.3366 31.5 47.5 31.5Z" fill="white" stroke="black"/>
</svg>
